<svg width="640" height="480" viewBox="0 0 640 480" fill="none" xmlns="http://www.w3.org/2000/svg">
  <rect width="640" height="480" rx="36" fill="#FFF8E1"/>
  <circle cx="525" cy="108" r="78" fill="#FFE28F"/>
  <circle cx="133" cy="365" r="96" fill="#FFF0B8"/>
  <rect x="229" y="108" width="182" height="228" rx="28" fill="#F9FDFF" stroke="#E3EEF8" stroke-width="8"/>
  <path d="M247 196C247 167.281 270.281 144 299 144H341C369.719 144 393 167.281 393 196V246C393 284.66 361.66 316 323 316H317C278.34 316 247 284.66 247 246V196Z" fill="#FFB22C"/>
  <path d="M250 177H390" stroke="#FFFFFF" stroke-width="8" stroke-linecap="round"/>
  <path d="M276 108V65" stroke="#7ED957" stroke-width="10" stroke-linecap="round"/>
  <path d="M321 108V49" stroke="#7ED957" stroke-width="10" stroke-linecap="round"/>
  <path d="M365 108V76" stroke="#7ED957" stroke-width="10" stroke-linecap="round"/>
  <circle cx="319" cy="228" r="34" fill="#FFD66B" opacity="0.8"/>
  <path d="M402 166C430 166 453 189 453 217C453 245 430 268 402 268" stroke="#F4FAFF" stroke-width="10" stroke-linecap="round"/>
  <text x="320" y="399" text-anchor="middle" fill="#B36500" font-size="36" font-family="Verdana, Arial, sans-serif" font-weight="700">ES JERUK</text>
</svg>
